<?xml version="1.0" encoding="UTF-8"?>
<svg width="19px" height="21px" viewBox="0 0 19 21" version="1.1" xmlns="http://www.w3.org/2000/svg" xmlns:xlink="http://www.w3.org/1999/xlink">
    <!-- Generator: Sketch 55 (78076) - https://sketchapp.com -->
    <title>icons/DepartIcon</title>
    <desc>Created with Sketch.</desc>
    <g id="Each-Way-Fares" stroke="none" stroke-width="1" fill="none" fill-rule="evenodd">
        <g id="Fare-selection" transform="translate(-1115.000000, -210.000000)" fill="#79879D">
            <g id="Group" transform="translate(610.000000, 208.000000)">
                <g id="Group-28" transform="translate(490.000000, 0.000000)">
                    <g id="Group-23">
                        <g id="icons/TrainOutboundIcon" transform="translate(11.000000, 0.000000)">
                            <path d="M13.527787,22 L6.28298292,22 L5.83955386,22.6103277 C5.51492903,23.0571355 4.88955937,23.1561843 4.44275162,22.8315595 C3.99594387,22.5069346 3.89689504,21.881565 4.22151987,21.4347572 L6.09207555,18.8601582 C4.87903769,18.4754408 4,17.3403755 4,16 L4,8 C4,4.6862915 6.6862915,2 10,2 L14,2 C17.3137085,2 20,4.6862915 20,8 L20,12.3414114 C19.3744421,12.1203084 18.7012708,12 18,12 L18,8 C18,5.790861 16.209139,4 14,4 L10,4 C7.790861,4 6,5.790861 6,8 L6,16 C6,16.5522847 6.44771525,17 7,17 L12.0829584,17 C12.0283988,17.3252085 12,17.6592878 12,18 C12,18.3407122 12.0283988,18.6747915 12.0829584,19 L8.46261051,19 L7.73606798,20 L12.3414114,20 C12.6048158,20.7452396 13.0112722,21.4229041 13.527787,22 Z M10,7 C9.44771525,7 9,7.44771525 9,8 L9,11 L15,11 L15,8 C15,7.44771525 14.5522847,7 14,7 L10,7 Z M10,5 L14,5 C15.6568542,5 17,6.34314575 17,8 L17,13 L7,13 L7,8 C7,6.34314575 8.34314575,5 10,5 Z M8,16 C7.44771525,16 7,15.5522847 7,15 C7,14.4477153 7.44771525,14 8,14 C8.55228475,14 9,14.4477153 9,15 C9,15.5522847 8.55228475,16 8,16 Z M19.5857864,17 L18.2928932,15.7071068 C17.9023689,15.3165825 17.9023689,14.6834175 18.2928932,14.2928932 C18.6834175,13.9023689 19.3165825,13.9023689 19.7071068,14.2928932 L22.7071068,17.2928932 C23.0976311,17.6834175 23.0976311,18.3165825 22.7071068,18.7071068 L19.7071068,21.7071068 C19.3165825,22.0976311 18.6834175,22.0976311 18.2928932,21.7071068 C17.9023689,21.3165825 17.9023689,20.6834175 18.2928932,20.2928932 L19.5857864,19 L15,19 C14.4477153,19 14,18.5522847 14,18 C14,17.4477153 14.4477153,17 15,17 L19.5857864,17 Z" id="Shape"></path>
                        </g>
                    </g>
                </g>
            </g>
        </g>
    </g>
</svg>