<?xml version="1.0" encoding="UTF-8"?>
<svg width="16px" height="16px" viewBox="0 0 16 16" version="1.1" xmlns="http://www.w3.org/2000/svg" xmlns:xlink="http://www.w3.org/1999/xlink">
    <!-- Generator: Sketch 54.1 (76490) - https://sketchapp.com -->
    <title>icons/InfoIcon</title>
    <desc>Created with Sketch.</desc>
    <g id="Each-Way-Fares" stroke="none" stroke-width="1" fill="none" fill-rule="evenodd">
        <g id="Fare-selection" transform="translate(-400.000000, -209.000000)" fill="#C2D0DE">
            <g id="[16v]" transform="translate(141.000000, 196.000000)">
                <g id="Group-26">
                    <g id="Group-12" transform="translate(8.000000, 8.000000)">
                        <g id="icons/InfoIcon" transform="translate(251.000000, 5.000000)">
                            <path d="M8,14 C11.3137085,14 14,11.3137085 14,8 C14,4.6862915 11.3137085,2 8,2 C4.6862915,2 2,4.6862915 2,8 C2,11.3137085 4.6862915,14 8,14 Z M8,15.3333333 C3.94991183,15.3333333 0.666666667,12.0500882 0.666666667,8 C0.666666667,3.94991183 3.94991183,0.666666667 8,0.666666667 C12.0500882,0.666666667 15.3333333,3.94991183 15.3333333,8 C15.3333333,12.0500882 12.0500882,15.3333333 8,15.3333333 Z M8,5.33333333 C7.44771525,5.33333333 7,4.88561808 7,4.33333333 C7,3.78104858 7.44771525,3.33333333 8,3.33333333 C8.55228475,3.33333333 9,3.78104858 9,4.33333333 C9,4.88561808 8.55228475,5.33333333 8,5.33333333 Z M8,6 C8.55228475,6 9,6.44771525 9,7 L9,11.6666667 C9,12.2189514 8.55228475,12.6666667 8,12.6666667 C7.44771525,12.6666667 7,12.2189514 7,11.6666667 L7,7 C7,6.44771525 7.44771525,6 8,6 Z" id="Combined-Shape"></path>
                        </g>
                    </g>
                </g>
            </g>
        </g>
    </g>
</svg>