<?xml version="1.0" encoding="UTF-8"?>
<svg width="19px" height="21px" viewBox="0 0 19 21" version="1.1" xmlns="http://www.w3.org/2000/svg" xmlns:xlink="http://www.w3.org/1999/xlink">
    <!-- Generator: Sketch 55 (78076) - https://sketchapp.com -->
    <title>icons/ReturnIcon</title>
    <desc>Created with Sketch.</desc>
    <g id="Each-Way-Fares" stroke="none" stroke-width="1" fill="none" fill-rule="evenodd">
        <g id="Fare-selection" transform="translate(-1228.000000, -210.000000)" fill="#79879D">
            <g id="Group" transform="translate(610.000000, 208.000000)">
                <g id="Group-28" transform="translate(490.000000, 0.000000)">
                    <g id="Group-24" transform="translate(116.000000, 0.000000)">
                        <g id="icons/TrainInboundIcon" transform="translate(11.000000, 0.000000)">
                            <path d="M10.472213,22 C10.9887278,21.4229041 11.3951842,20.7452396 11.6585886,20 L16.263932,20 L15.5373895,19 L11.9170416,19 C11.9716012,18.6747915 12,18.3407122 12,18 C12,17.6592878 11.9716012,17.3252085 11.9170416,17 L17,17 C17.5522847,17 18,16.5522847 18,16 L18,8 C18,5.790861 16.209139,4 14,4 L10,4 C7.790861,4 6,5.790861 6,8 L6,12 C5.29872915,12 4.62555785,12.1203084 4,12.3414114 L4,8 C4,4.6862915 6.6862915,2 10,2 L14,2 C17.3137085,2 20,4.6862915 20,8 L20,16 C20,17.3403755 19.1209623,18.4754408 17.9079245,18.8601582 L19.7784801,21.4347572 C20.103105,21.881565 20.0040561,22.5069346 19.5572484,22.8315595 C19.1104406,23.1561843 18.485071,23.0571355 18.1604461,22.6103277 L17.7170171,22 L10.472213,22 Z M10,7 C9.44771525,7 9,7.44771525 9,8 L9,11 L15,11 L15,8 C15,7.44771525 14.5522847,7 14,7 L10,7 Z M10,5 L14,5 C15.6568542,5 17,6.34314575 17,8 L17,13 L7,13 L7,8 C7,6.34314575 8.34314575,5 10,5 Z M16,16 C15.4477153,16 15,15.5522847 15,15 C15,14.4477153 15.4477153,14 16,14 C16.5522847,14 17,14.4477153 17,15 C17,15.5522847 16.5522847,16 16,16 Z M4.41421356,17 L9,17 C9.55228475,17 10,17.4477153 10,18 C10,18.5522847 9.55228475,19 9,19 L4.41421356,19 L5.70710678,20.2928932 C6.09763107,20.6834175 6.09763107,21.3165825 5.70710678,21.7071068 C5.31658249,22.0976311 4.68341751,22.0976311 4.29289322,21.7071068 L1.29289322,18.7071068 C0.902368927,18.3165825 0.902368927,17.6834175 1.29289322,17.2928932 L4.29289322,14.2928932 C4.68341751,13.9023689 5.31658249,13.9023689 5.70710678,14.2928932 C6.09763107,14.6834175 6.09763107,15.3165825 5.70710678,15.7071068 L4.41421356,17 Z" id="Shape"></path>
                        </g>
                    </g>
                </g>
            </g>
        </g>
    </g>
</svg>